<?xml version="1.0" encoding="UTF-8" standalone="no"?>
<!-- Created with Inkscape (http://www.inkscape.org/) -->

<svg
   xmlns:dc="http://purl.org/dc/elements/1.1/"
   xmlns:cc="http://creativecommons.org/ns#"
   xmlns:rdf="http://www.w3.org/1999/02/22-rdf-syntax-ns#"
   xmlns:svg="http://www.w3.org/2000/svg"
   xmlns="http://www.w3.org/2000/svg"
   xmlns:sodipodi="http://sodipodi.sourceforge.net/DTD/sodipodi-0.dtd"
   xmlns:inkscape="http://www.inkscape.org/namespaces/inkscape"
   width="49.263813"
   height="49.090771"
   id="svg2"
   version="1.1"
   inkscape:version="0.48.1 r9760"
   sodipodi:docname="activity.svg"
   inkscape:export-filename="/home/valentin/Escritorio/Enlace hacia icaro/mucho codigo python/tennis/imagen/box1.png"
   inkscape:export-xdpi="108"
   inkscape:export-ydpi="108">
  <defs
     id="defs4" />
  <sodipodi:namedview
     id="base"
     pagecolor="#ffffff"
     bordercolor="#666666"
     borderopacity="1.0"
     inkscape:pageopacity="0.0"
     inkscape:pageshadow="2"
     inkscape:zoom="0.49497475"
     inkscape:cx="345.68715"
     inkscape:cy="-46.70974"
     inkscape:document-units="px"
     inkscape:current-layer="layer1"
     showgrid="false"
     inkscape:window-width="1280"
     inkscape:window-height="741"
     inkscape:window-x="0"
     inkscape:window-y="28"
     inkscape:window-maximized="1"
     fit-margin-top="0"
     fit-margin-left="0"
     fit-margin-right="0"
     fit-margin-bottom="0" />
  <metadata
     id="metadata7">
    <rdf:RDF>
      <cc:Work
         rdf:about="">
        <dc:format>image/svg+xml</dc:format>
        <dc:type
           rdf:resource="http://purl.org/dc/dcmitype/StillImage" />
        <dc:title />
      </cc:Work>
    </rdf:RDF>
  </metadata>
  <g
     inkscape:label="Capa 1"
     inkscape:groupmode="layer"
     id="layer1"
     transform="translate(-371.1064,-469.78553)">
    <g
       id="g5825"
       inkscape:export-filename="/home/valentin/icaro/mucho codigo python/tennis/imagen/rojo_de.png"
       inkscape:export-xdpi="108"
       inkscape:export-ydpi="108">
      <path
         inkscape:connector-curvature="0"
         id="path5657-3"
         d="m 410.39422,477.44447 c -6.27758,-6.27758 -16.45557,-6.27758 -22.73316,0 -6.27758,6.27758 -6.27758,16.45558 0,22.73316 6.27758,6.27758 16.45559,6.27758 22.73317,0 6.27758,-6.27758 6.27757,-16.45558 -10e-6,-22.73316 z m -0.58714,0.728 c 0.36457,0.36458 0.71333,0.73667 1.03333,1.12724 l -0.93938,0.93938 -2.41892,-2.41892 0.89242,-0.89241 c 0.49577,0.38617 0.97673,0.78887 1.43256,1.24469 z m 1.94923,2.37195 c 0.65732,0.99094 1.17211,2.03613 1.57347,3.12345 l -2.34846,-2.34846 0.77499,-0.77499 z m -4.67343,-4.53257 -0.70454,0.70454 -2.04317,-2.04317 c 0.94784,0.35056 1.87097,0.79353 2.74771,1.33863 z m -5.73026,-2.11362 0.42272,0.42272 -2.41892,2.41892 -2.41892,-2.41892 0.51666,-0.51666 c 1.29424,-0.13405 2.61063,-0.10207 3.89846,0.0939 z m 1.50302,1.50302 2.41892,2.41892 -2.41892,2.41892 -2.41892,-2.41892 2.41892,-2.41892 z m 3.5227,3.5227 2.41892,2.41892 -2.41892,2.41892 -2.41892,-2.41892 2.41892,-2.41892 z m 3.49922,3.49922 2.41892,2.41892 -2.41892,2.41892 -2.41892,-2.41892 2.41892,-2.41892 z m 3.52269,3.52269 0.70455,0.70455 c 0.16548,1.08723 0.21068,2.19226 0.14091,3.28784 l -0.84546,0.84545 -2.41892,-2.41892 2.41892,-2.41892 z m -18.64682,-11.64839 c 0.006,-10e-4 0.0178,0.0248 0.0235,0.0235 l -2.41892,2.41892 -0.96287,-0.96287 c 1.07892,-0.62735 2.18612,-1.13878 3.35831,-1.47953 z m 1.10377,1.10378 2.41892,2.41892 -2.41892,2.41892 -2.41892,-2.41892 2.41892,-2.41892 z m 3.49923,3.49922 2.41892,2.41892 -2.41892,2.41892 -2.41892,-2.41892 2.41892,-2.41892 z m 3.52269,3.52269 2.41892,2.41892 -2.41892,2.41892 -2.41892,-2.41892 2.41892,-2.41892 z m 3.49922,3.49923 2.41892,2.41892 -2.41892,2.41892 -2.41892,-2.41892 2.41892,-2.41892 z m 3.5227,3.52269 2.41892,2.41892 -2.41892,2.41892 -2.41892,-2.41892 2.41892,-2.41892 z m 3.49922,3.49922 0.28181,0.28181 c -0.34075,1.1722 -0.82869,2.30287 -1.45604,3.3818 l -1.24469,-1.24469 2.41892,-2.41892 z m -23.32027,-16.32185 1.19771,1.19771 -2.44241,2.44241 -1.31514,-1.31514 c 0.23159,-0.26666 0.47447,-0.52157 0.72796,-0.77506 0.57517,-0.57517 1.19431,-1.08584 1.83181,-1.54999 z m 2.278,2.27801 2.41892,2.41892 -2.44241,2.44241 -2.41892,-2.41892 2.44241,-2.44241 z m 3.49923,3.49922 2.41892,2.41892 -2.44241,2.44241 -2.41892,-2.41892 2.44241,-2.44241 z m 3.52269,3.52269 2.41892,2.41892 -2.44241,2.44241 -2.41892,-2.41892 2.44241,-2.44241 z m 3.49922,3.49923 2.41892,2.41892 -2.44241,2.44241 -2.41892,-2.41892 2.44241,-2.44241 z m 3.5227,3.52269 2.41892,2.41892 -2.44241,2.44241 -2.41892,-2.41892 2.44241,-2.44241 z m 3.49922,3.49922 1.47953,1.47953 c -0.46417,0.63747 -0.97482,1.25664 -1.54999,1.83181 -0.25349,0.25349 -0.50804,0.49672 -0.77506,0.72796 l -1.59696,-1.59696 2.44241,-2.44241 z m -23.32029,-16.27487 1.17423,1.17423 -2.41892,2.41892 -0.46969,-0.46969 c 0.43687,-1.09283 1.01473,-2.13549 1.71438,-3.12346 z m 2.25453,2.25452 2.41892,2.41892 -2.41892,2.41892 -2.41892,-2.41892 2.41892,-2.41892 z m 3.49922,3.49923 2.41892,2.41892 -2.41892,2.41892 -2.41892,-2.41892 2.41892,-2.41892 z m 3.52269,3.52269 2.41892,2.41892 -2.41892,2.41892 -2.41892,-2.41892 2.41892,-2.41892 z m 3.49923,3.49922 2.41892,2.41892 -2.41892,2.41893 -2.41892,-2.41893 2.41892,-2.41892 z m 3.52269,3.5227 2.41892,2.41892 -2.41892,2.41892 -2.41892,-2.41892 2.41892,-2.41892 z m 3.49922,3.49922 1.45605,1.45605 c -0.98777,0.69951 -2.03089,1.27753 -3.12346,1.71438 l -0.75151,-0.75151 2.41892,-2.41892 z m -21.04226,-14.04385 2.41892,2.41892 -2.41893,2.41893 -1.54998,-1.54998 c -0.009,-0.60655 0.0314,-1.22783 0.0939,-1.83181 l 1.45606,-1.45606 z m 3.49922,3.49923 2.41892,2.41892 -2.41893,2.41893 -2.41892,-2.41893 2.41893,-2.41892 z m 3.52269,3.52269 2.41892,2.41892 -2.41892,2.41893 -2.41892,-2.41892 2.41892,-2.41893 z m 3.49923,3.49922 2.41892,2.41892 -2.41893,2.41893 -2.41892,-2.41892 2.41893,-2.41893 z m 3.52269,3.5227 2.41892,2.41892 -1.78484,1.78484 c -0.40347,0.0257 -0.8171,0.0532 -1.2212,0.047 l -1.83181,-1.83181 2.41893,-2.41892 z m 3.49922,3.49922 0.18788,0.18787 c -0.16289,0.0447 -0.32916,0.0783 -0.49318,0.11744 l 0.3053,-0.30531 z m -18.8582,-11.81279 0.21136,0.21136 -0.14091,0.14091 c -0.0238,-0.11769 -0.0495,-0.2342 -0.0704,-0.35227 z m 1.29166,1.29166 2.41892,2.41892 -1.64393,1.64394 c -0.64815,-1.04246 -1.17689,-2.14903 -1.54998,-3.28787 l 0.77499,-0.77499 z m 3.5227,3.5227 2.41892,2.41892 -1.87877,1.87877 c -0.39052,-0.32009 -0.78612,-0.64527 -1.15072,-1.00987 -0.45583,-0.45582 -0.83508,-0.96023 -1.22121,-1.45605 l 1.8318,-1.8318 z m 3.49922,3.49922 2.41892,2.41892 -0.89242,0.89242 c -1.12727,-0.40606 -2.21589,-0.91705 -3.24088,-1.59696 l 1.71438,-1.71438 z m 3.52269,3.52269 0.49319,0.49319 c -0.2681,-0.0476 -0.53276,-0.12591 -0.79849,-0.18789 l 0.3053,-0.3053 z"
         style="fill:#008080;fill-opacity:1;stroke:#000000;stroke-width:1.09567845;stroke-linecap:round;stroke-linejoin:round;stroke-miterlimit:4;stroke-opacity:1;stroke-dasharray:none" />
      <path
         inkscape:connector-curvature="0"
         id="rect5344-50"
         d="m 413.01946,475.72208 c -7.24874,-7.24873 -19.00261,-7.24873 -26.25134,0 -6.2065,6.2065 -7.07338,15.69242 -2.65165,22.84839 0.002,0.003 -0.0238,0.0195 -0.0221,0.0221 l -10.71708,10.71709 c -0.88244,0.88243 -0.88244,2.29955 0,3.18198 l 2.87262,2.87262 c 0.88243,0.88244 2.29954,0.88244 3.18198,0 l 10.71709,-10.71709 0.0221,-0.0221 c 7.15597,4.42173 16.64189,3.55485 22.84839,-2.65165 7.24873,-7.24873 7.24873,-19.0026 0,-26.25134 z m -2.51907,2.51907 c 5.85622,5.85622 5.85622,15.35698 0,21.2132 -5.85623,5.85623 -15.35698,5.85623 -21.21321,0 -5.85622,-5.85622 -5.85622,-15.35698 0,-21.2132 5.85623,-5.85622 15.35698,-5.85622 21.21321,0 z"
         style="fill:#1a1a1a;fill-opacity:1;stroke:#000000;stroke-width:1;stroke-linecap:round;stroke-linejoin:round;stroke-miterlimit:4;stroke-opacity:1;stroke-dasharray:none" />
      <path
         inkscape:connector-curvature="0"
         id="rect5344-6-6"
         d="m 414.43367,477.1363 c -7.24874,-7.24874 -19.0026,-7.24874 -26.25134,0 -6.2065,6.20649 -7.07338,15.69241 -2.65165,22.84838 0.002,0.003 -0.0238,0.0195 -0.0221,0.0221 l -10.71709,10.71708 c -0.88243,0.88244 -0.88243,2.29955 0,3.18198 l 2.87262,2.87263 c 0.88244,0.88243 2.29955,0.88243 3.18198,0 l 10.71709,-10.71709 0.0221,-0.0221 c 7.15597,4.42173 16.64189,3.55484 22.84839,-2.65165 7.24873,-7.24874 7.24873,-19.00261 0,-26.25134 z m -2.51907,2.51906 c 5.85622,5.85623 5.85622,15.35698 0,21.21321 -5.85622,5.85622 -15.35698,5.85622 -21.2132,0 -5.85623,-5.85623 -5.85623,-15.35698 0,-21.21321 5.85622,-5.85622 15.35698,-5.85622 21.2132,0 z"
         style="fill:#800000;fill-opacity:1;stroke:#000000;stroke-width:1;stroke-linecap:round;stroke-linejoin:round;stroke-miterlimit:4;stroke-opacity:1;stroke-dasharray:none" />
      <rect
         transform="matrix(0.70710678,0.70710678,-0.70710678,0.70710678,0,0)"
         ry="0"
         y="88.337105"
         x="624.06152"
         height="9.9945621"
         width="10.727795"
         id="rect5706-3"
         style="fill:#666666;fill-opacity:1;stroke:#000000;stroke-width:0.96296668;stroke-linecap:round;stroke-linejoin:round;stroke-miterlimit:4;stroke-opacity:1;stroke-dasharray:none" />
      <path
         inkscape:connector-curvature="0"
         id="path5708-1"
         d="m 379.89447,505.56364 -6.96429,6.78571"
         style="fill:none;stroke:#000000;stroke-width:1px;stroke-linecap:butt;stroke-linejoin:miter;stroke-opacity:1" />
      <rect
         transform="matrix(0.70710678,0.70710678,-0.70710678,0.70710678,0,0)"
         y="88.542732"
         x="623.90393"
         height="9.8237772"
         width="2.2544644"
         id="rect5710-68"
         style="fill:#1a1a1a;fill-opacity:1;stroke:#000000;stroke-width:1.00933743;stroke-linecap:round;stroke-linejoin:round;stroke-miterlimit:4;stroke-opacity:1;stroke-dasharray:none" />
    </g>
  </g>
</svg>
